<svg xmlns="http://www.w3.org/2000/svg" width="1000" height="1000">
    <path d="M395.365 113.282l-266.953 105.53-95.244 126.635 55 204.025 144.879 15.477-25.488 63.318 105.976 77.389 146.22-23.92 120.733 216.687 20.07-.812-3.972-134.266 88.537 71.76 147.562-50.654 4.024-88.645 114.025-77.388-18.78-195.582-151.587-205.431z" fill="none" stroke="#000" stroke-width="18.898" />
    <g fill="none" stroke="#000">
        <path d="M303.81 265.658l-175.398-46.846 266.953-105.53zM128.412 218.812l129.095 228.807-224.34-102.172z" stroke-width="10.45" />
        <path d="M257.507 447.62L88.167 549.471l144.88 15.477z" stroke-width="10.828" />
        <path d="M780.367 217.405l35.207 203.407 116.38 2.024z" stroke-width="10.45" />
        <path d="M950.734 618.418l-135.16-197.606 116.38 2.024z" stroke-width="10.45" />
        <path d="M596.586 763.345l-136.83-81.61 120.732 216.688 20.07-.812z" stroke-width="10.828" />
        <path d="M596.586 763.345l-6.026-228.807-130.805 147.197z" stroke-width="10.45" />
        <path d="M449.216 694.566l34.117-193.334" stroke-width="10.072" />
        <path d="M781.457 568.655l169.277 49.763" stroke-width="10.45" />
        <path d="M815.574 420.812l-34.117 147.843" stroke-width="10.828" />
        <path d="M781.457 568.655l55.252 127.151M483.333 501.232L313.535 705.656M426.47 398.88l47.673 108.67" stroke-width="10.45" />
        <path d="M528.448 304.688l-96.808 99.648" stroke-width="10.828" />
        <path d="M402.368 117.146l127.516 200.18" stroke-width="10.45" />
        <path d="M781.185 224.56l-251.3 92.765" stroke-width="10.828" />
        <path d="M315.059 264.767l208.507 49.973M529.884 317.325L765.39 382.52M645.052 452.884L536.777 324.218" stroke-width="10.45" />
        <path d="M656.54 448.001c-163.417 46.814-173.207 53.231-173.207 53.231" stroke-width="10.828" />
        <path d="M638.446 444.555l-47.886 89.983" stroke-width="10.45" />
        <path d="M298.353 267.669l123.522 135.519" stroke-width="10.072" />
        <path d="M253.199 442.45l163.241-46.72M656.54 448.001l124.917 120.654M242.971 556.563l79.842 139.005" stroke-width="10.45" />
        <path d="M474.143 507.55L242.97 556.564M257.507 447.62l225.826 53.612" stroke-width="10.072" />
        <path d="M590.56 534.538l78.617 19.153M596.586 763.345l184.87-194.69M847.815 701.886l-236.079 62.61" stroke-width="10.45" />
    </g>
    <ellipse cx="399.258" cy="117.003" rx="37.773" ry="37.367" />
    <ellipse cx="134.347" cy="219.731" rx="37.773" ry="37.367" />
    <ellipse cx="780.644" cy="220.98" rx="37.773" ry="37.367" />
    <ellipse cx="41.429" cy="347.703" rx="37.773" ry="37.367" />
    <ellipse cx="96.667" cy="542.661" rx="37.773" ry="37.367" />
    <ellipse cx="232.325" cy="558.908" rx="37.773" ry="37.367" />
    <ellipse cx="208.768" cy="632.829" rx="37.773" ry="37.367" />
    <ellipse cx="311.933" cy="704.314" rx="37.773" ry="37.367" />
    <ellipse cx="456.527" cy="690.504" rx="37.773" ry="37.367" />
    <ellipse cx="587.311" cy="895.21" rx="37.773" ry="37.367" />
    <ellipse cx="927.675" cy="428.936" rx="37.773" ry="37.367" />
    <ellipse cx="943.109" cy="615.832" rx="37.773" ry="37.367" />
    <ellipse cx="845.63" cy="702.689" rx="37.773" ry="37.367" />
    <ellipse cx="822.073" cy="788.796" rx="37.773" ry="37.367" />
    <ellipse cx="686.415" cy="831.849" rx="37.773" ry="37.367" />
    <ellipse cx="529.23" cy="316.429" rx="29.65" ry="29.65" />
    <ellipse cx="482.521" cy="504.482" rx="29.65" ry="29.65" />
    <ellipse cx="588.123" cy="533.725" rx="29.65" ry="29.65" />
    <ellipse cx="259.944" cy="447.619" rx="29.65" ry="29.65" />
    <ellipse cx="307.059" cy="267.283" rx="29.65" ry="29.65" />
    <ellipse cx="779.832" cy="569.468" rx="29.65" ry="29.65" />
    <ellipse cx="818.011" cy="415.563" rx="29.65" ry="29.65" />
    <ellipse cx="648.235" cy="449.244" rx="29.65" ry="29.65" />
    <ellipse cx="424.846" cy="399.692" rx="29.65" ry="29.65" />
    <ellipse cx="599.496" cy="763.613" rx="37.773" ry="37.367" />
    <g>
        <text style="line-height:1.25;-inkscape-font-specification:Verdana" x="321.477" y="380.37" transform="rotate(14.592)" font-weight="400" font-size="293.333" font-family="Verdana" letter-spacing="0" word-spacing="0">
            <tspan x="321.477" y="380.37">
                <tspan x="321.477" y="380.37" style="-inkscape-font-specification:Verdana">DLC</tspan>
            </tspan>
        </text>
    </g>
</svg>